<?xml version="1.0" encoding="UTF-8" standalone="no"?>
<!-- Created with Inkscape (http://www.inkscape.org/) -->

<svg
   width="210mm"
   height="297mm"
   viewBox="0 0 210 297"
   version="1.1"
   id="svg1"
   inkscape:version="1.3.2 (091e20e, 2023-11-25)"
   sodipodi:docname="logo.svg"
   xmlns:inkscape="http://www.inkscape.org/namespaces/inkscape"
   xmlns:sodipodi="http://sodipodi.sourceforge.net/DTD/sodipodi-0.dtd"
   xmlns="http://www.w3.org/2000/svg"
   xmlns:svg="http://www.w3.org/2000/svg">
  <sodipodi:namedview
     id="namedview1"
     pagecolor="#505050"
     bordercolor="#ffffff"
     borderopacity="1"
     inkscape:showpageshadow="0"
     inkscape:pageopacity="0"
     inkscape:pagecheckerboard="1"
     inkscape:deskcolor="#505050"
     inkscape:document-units="mm"
     inkscape:zoom="1.0129245"
     inkscape:cx="414.14735"
     inkscape:cy="514.35225"
     inkscape:window-width="1680"
     inkscape:window-height="997"
     inkscape:window-x="0"
     inkscape:window-y="25"
     inkscape:window-maximized="1"
     inkscape:current-layer="layer1"
     showgrid="false" />
  <defs
     id="defs1">
    <rect
       x="89.838876"
       y="322.82761"
       width="668.11495"
       height="168.5713"
       id="rect1" />
  </defs>
  <g
     inkscape:label="Layer 1"
     inkscape:groupmode="layer"
     id="layer1">
    <g
       id="g2"
       style="display:none">
      <path
         style="fill:#ffffff;fill-opacity:1;stroke-width:0.264583"
         d="M 38.41791,144.99067 V 117.10075"
         id="path1" />
      <path
         style="fill:#ffffff;fill-opacity:1;stroke-width:0.264583"
         id="path3"
         d="m 37.031755,154.53607 c -0.172683,-1.60922 -0.242292,-3.22934 -0.341395,-4.84468 -0.138353,-2.02219 -0.150339,-4.04898 -0.177363,-6.07462 0.01461,-0.94136 -0.07758,-1.87865 -0.126476,-2.81728 -0.03003,-0.57655 -0.02484,-0.83119 -0.02837,-1.41111 -5.3e-4,-1.29539 0.09629,-2.58778 0.162948,-3.88072 0.04666,-0.88075 0.06871,-1.76201 0.07671,-2.64384 -0.0035,-0.71459 0.0158,-1.42818 0.05361,-2.14166 0.03249,-0.67491 0.04079,-1.35065 0.05058,-2.02616 5.3e-4,-0.64682 0.01466,-1.29379 0.0024,-1.94052 -0.02156,-0.48404 -0.03974,-0.96822 -0.0433,-1.45277 2.65e-4,-0.28199 -0.0035,-0.56394 -2.25e-4,-0.84593 -2.64e-4,-0.0431 -7.94e-4,-0.0863 -7.94e-4,-0.12945 -2.9e-5,-0.042 -7.93e-4,-0.084 7.94e-4,-0.1259 0.01378,-0.42682 0.106397,0.25932 -0.136694,0.1472 -1.167853,-0.53863 -2.236372,-1.27069 -3.354557,-1.90603 0.03824,0.0643 0.08053,0.12625 0.114723,0.19274 0.126871,0.24666 0.208362,0.46558 0.307859,0.72808 0.21576,0.56926 0.397079,1.14726 0.577879,1.72835 0.461542,1.43755 0.87924,2.88854 1.321795,4.33196 0.430339,1.48113 0.893096,2.95168 1.388356,4.41231 0.476811,1.42777 0.902938,2.87162 1.366485,4.30354 0.442617,1.38832 0.962113,2.75 1.451618,4.12199 0.457703,1.33633 0.914054,2.67304 1.377538,4.00739 0.360013,0.99731 0.672615,2.01063 1.003972,3.01756 0.195061,0.48597 0.314407,0.99586 0.470299,1.49413 0.0024,0.0356 -0.02513,0.0911 0.0069,0.10669 1.184465,0.57805 2.365319,1.17112 3.593142,1.65025 0.07667,0.0299 0.0079,-0.16471 0.0032,-0.24688 -0.0059,-0.10382 -0.02429,-0.20655 -0.03474,-0.31001 -0.0307,-0.30411 -0.05654,-0.60869 -0.08507,-0.91301 -0.126201,-1.45376 -0.172558,-2.9126 -0.190598,-4.37118 -0.0045,-1.91822 0.105527,-3.83429 0.157538,-5.75137 0.05452,-1.68327 0.09729,-3.36682 0.123714,-5.05075 0.01434,-1.1769 0.0313,-2.35351 0.07944,-3.52955 0.03,-0.8778 0.06699,-1.75536 0.08773,-2.63345 0.0028,-0.50775 0.051,-1.0127 0.101629,-1.5173 0.01161,-0.16341 0.02934,-0.32643 0.03906,-0.48998 0.0056,-0.0934 -0.007,-0.19385 0.04323,-0.27635 -0.391755,1.40468 0.05754,0.0391 -3.336187,-1.5863 -0.120046,-0.0575 0.167519,0.20808 0.235199,0.32269 0.105529,0.1787 0.197067,0.36566 0.282887,0.55461 0.1177,0.25915 0.224026,0.52344 0.327221,0.7887 0.125952,0.32375 0.240057,0.65199 0.360085,0.97799 0.908185,2.64958 1.46345,5.39745 2.030164,8.13469 0.512569,2.67357 0.978423,5.35587 1.405466,8.04436 0.2813,1.63262 0.473372,3.27717 0.667036,4.92169 0.05774,0.47224 0.122595,0.94397 0.219718,1.40986 0,0 3.519842,1.68982 3.519842,1.68982 v 0 c -0.132787,-0.48942 -0.303668,-0.96788 -0.400598,-1.46741 -0.361175,-1.68846 -0.648298,-3.3917 -0.995174,-5.08322 -0.490112,-2.70555 -0.986693,-5.40997 -1.511369,-8.10905 -0.560314,-2.69547 -1.087869,-5.39938 -1.792015,-8.06232 -0.211802,-0.74708 -0.411602,-1.49738 -0.647168,-2.23736 -0.0374,-0.11748 -0.01146,-0.28332 -0.113914,-0.35187 -3.433223,-2.29672 -2.597653,-3.06018 -3.702719,-1.88019 -0.0336,0.0956 -0.06394,0.16865 -0.07746,0.27223 -0.02709,0.20758 0.01601,0.4238 -0.0154,0.6317 -0.02394,0.52817 -0.05249,1.05544 -0.02273,1.58435 7.93e-4,0.88504 5.29e-4,1.77022 -0.03061,2.65486 -0.02275,1.19819 0.01421,2.39563 0.02492,3.59387 0.015,1.701 0.03446,3.40237 -0.0011,5.10325 -0.03051,0.9851 -0.05894,1.96999 -0.109027,2.95434 -0.03222,0.63311 -0.076,1.25306 -0.09724,1.88654 -0.0099,0.29561 -0.01159,0.59145 -0.01738,0.88718 -0.025,1.43425 -0.01461,2.8689 0.01341,4.30308 0.01122,2.45031 -0.543642,0.89625 3.539194,2.9909 0.02952,0.0151 -0.06547,0.0109 -0.09821,0.0162 -0.141034,-0.17972 -0.178949,-0.3027 -0.254027,-0.52079 -0.11489,-0.33375 -0.244948,-0.66219 -0.377642,-0.98917 -0.395841,-1.01251 -0.72576,-2.04974 -1.110083,-3.06676 -0.495036,-1.33472 -0.962536,-2.67911 -1.421316,-4.02669 -0.485827,-1.36816 -0.983988,-2.73208 -1.443653,-4.10936 -0.484812,-1.43273 -0.916343,-2.88247 -1.391674,-4.31839 -0.495335,-1.45744 -0.957292,-2.92541 -1.393333,-4.40169 -0.430006,-1.43182 -0.853774,-2.86517 -1.265817,-4.30225 -0.2402,-0.86384 -0.473028,-1.72948 -0.708046,-2.59475 -1.761112,-1.06769 -2.892669,-3.32702 -3.628068,-1.80689 -0.0067,0.014 0.03655,0.38249 0.01693,0.41515 0.0043,0.29049 0.0028,0.58127 0.02196,0.8713 0.02985,0.49421 0.06935,0.98771 0.09954,1.48191 0.0346,0.643 0.01389,1.28742 0.01717,1.9311 -0.0019,0.67152 -0.01201,1.34303 -0.04324,2.01391 -0.02823,0.72381 -0.05098,1.44686 -0.0309,2.1714 0.0016,0.89028 0.0087,1.78063 -6.6e-5,2.67087 -0.01836,1.31032 -0.06724,2.61955 -0.0921,3.92967 -0.0039,0.39857 -0.01447,1.02412 -5.29e-4,1.42413 0.03331,0.95073 0.186359,1.89302 0.205774,2.84461 0.114528,2.05066 0.210762,4.10238 0.321839,6.15321 0.05733,1.52821 0.09787,3.06766 -0.130476,4.58537 z" />
      <path
         style="fill:#ffffff;fill-opacity:1;stroke-width:0.264583"
         id="path4"
         d="m 61.396519,128.49674 c -0.379584,0.0988 -0.75955,0.22456 -1.108855,0.40565 -0.126794,0.0657 -0.245713,0.14564 -0.36857,0.21847 -0.984864,0.65373 -1.712508,1.60382 -2.314043,2.60802 -0.180322,0.30103 -0.342524,0.61255 -0.513787,0.91882 -1.012671,1.94301 -1.813909,4.019 -2.220169,6.17882 -0.09193,0.48875 -0.141504,0.98452 -0.212256,1.47679 -0.02774,0.51689 -0.07866,1.03306 -0.08322,1.55068 -0.01887,2.14323 0.326147,4.32398 1.000278,6.35879 0.156927,0.47368 0.358688,0.93131 0.538031,1.39696 0.489241,0.95617 0.625506,1.3332 1.260496,2.17128 0.328094,0.43303 0.946779,1.11519 1.425649,1.41347 3.547843,2.20985 2.449295,1.8527 4.588396,2.3921 0.26961,0.0121 0.539512,0.0538 0.808831,0.0364 1.232326,-0.0798 2.31671,-0.81577 3.156852,-1.67247 0.277501,-0.28297 0.519714,-0.59851 0.779571,-0.89776 1.57334,-2.0808 2.733212,-4.44353 3.730625,-6.84527 0.2139,-0.51506 0.405792,-1.03899 0.608688,-1.55848 0.506798,-1.39163 0.970327,-2.80517 1.245724,-4.26343 0.146484,-0.77564 0.249386,-1.58239 0.216352,-2.37469 -0.01513,-0.36324 -0.08597,-0.722 -0.128955,-1.083 -0.09048,-0.33642 -0.155302,-0.68082 -0.271428,-1.00927 -0.482338,-1.36426 -1.433126,-2.6146 -2.478643,-3.59883 -0.285216,-0.26849 -0.597355,-0.50687 -0.896033,-0.7603 -0.319706,-0.22652 -0.630713,-0.46584 -0.959119,-0.67955 -0.323689,-0.21064 -0.658286,-0.40447 -0.995614,-0.59249 -1.314397,-0.73262 -2.620256,-1.48213 -3.959051,-2.16915 -0.3337,-0.17124 -0.696867,-0.27832 -1.051025,-0.40182 -0.779246,-0.27174 -1.109528,-0.34122 -1.889101,-0.54297 -0.627954,-0.14652 -1.270781,-0.29024 -1.920534,-0.27877 -0.144531,0.003 -0.287819,0.0273 -0.431729,0.0409 0,0 3.085264,2.20151 3.085264,2.20151 v 0 c 0.12332,-0.009 0.246309,-0.0256 0.369954,-0.0278 0.575191,-0.0102 1.144857,0.0905 1.704414,0.21275 0.748747,0.18723 1.023599,0.23742 1.77347,0.50753 0.342204,0.12326 1.284828,0.64675 1.013378,0.40465 -0.546886,-0.48776 -1.263499,-0.7454 -1.864894,-1.16411 -0.635238,-0.44227 2.680983,1.5597 1.97608,1.21956 0.297074,0.24002 0.606721,0.46526 0.891228,0.72006 1.033208,0.92531 1.986113,2.13146 2.504736,3.4268 0.126889,0.31692 0.209164,0.64993 0.313746,0.9749 0.06003,0.35077 0.146357,0.69804 0.180099,1.0523 0.164822,1.73051 -0.214508,3.49784 -0.685721,5.15167 -0.14469,0.50782 -0.318653,1.00685 -0.47798,1.51028 -0.19748,0.51694 -0.381669,1.03915 -0.592436,1.55082 -0.978739,2.37602 -2.213536,4.66972 -3.90634,6.61631 -0.273585,0.27342 -0.531162,0.56386 -0.820754,0.82027 -0.859798,0.76127 -1.929879,1.3806 -3.111018,1.37581 -0.25113,-10e-4 -0.49915,-0.0558 -0.748726,-0.0837 -1.280083,-0.42797 -1.939957,-0.70838 1.484222,1.08716 0.293021,0.15365 -0.551217,-0.36925 -0.800872,-0.58637 -0.938363,-0.81607 -1.627876,-1.85719 -2.206742,-2.94639 -0.194831,-0.4616 -0.413183,-0.91396 -0.584488,-1.38479 -0.724606,-1.99157 -1.067821,-4.13334 -1.03196,-6.25113 0.0085,-0.50462 0.06491,-1.00729 0.09736,-1.51094 0.07424,-0.47972 0.128225,-0.96302 0.2227,-1.43917 0.420177,-2.11766 1.244076,-4.13891 2.343129,-5.99169 0.187317,-0.28824 0.366017,-0.58226 0.561957,-0.86471 0.645339,-0.93026 1.421733,-1.79113 2.436841,-2.32088 0.476673,-0.20726 0.987536,-0.42129 1.51941,-0.37214 z" />
      <path
         style="fill:#ffffff;fill-opacity:1;stroke-width:0.264583"
         id="path5"
         d="m 84.966751,133.60958 c -0.650404,-0.0346 -1.296903,-0.0892 -1.945997,0.0142 -0.246722,0.0393 -0.488948,0.10291 -0.73342,0.15437 -0.275254,0.0909 -0.556427,0.16553 -0.825762,0.27272 -1.447022,0.57584 -2.746044,1.5334 -3.832585,2.63914 -0.338542,0.34453 -0.643816,0.72024 -0.965724,1.08036 -1.329624,1.65749 -2.289222,3.57067 -2.813862,5.63173 -0.352539,1.38495 -0.329062,1.76615 -0.450305,3.16919 0.01019,0.50083 -0.01103,1.00328 0.03057,1.50248 0.109431,1.31318 0.45239,2.65688 1.092398,3.81661 0.506548,0.91788 0.708988,1.02919 1.420834,1.75491 1.777822,1.20766 1.973254,1.39122 4.850304,2.65415 0.340069,0.14927 0.730851,0.14145 1.101156,0.16981 0.789065,0.0605 1.594753,-0.005 2.369389,-0.15877 0.413541,-0.0823 0.815472,-0.21479 1.223209,-0.32218 1.684059,-0.55815 3.262172,-1.40662 4.649507,-2.51478 0.856159,-0.68388 1.126164,-1.01123 1.87888,-1.78881 0.247232,-0.31983 0.51308,-0.6261 0.741696,-0.95949 0.775097,-1.13033 1.463079,-2.66257 1.504174,-4.05272 0.01064,-0.35937 -0.05028,-0.71731 -0.07542,-1.07596 -0.104722,-0.37556 -0.172337,-0.76351 -0.314169,-1.12669 -0.774949,-1.98433 -2.360562,-3.64793 -3.94466,-5.01552 -0.479843,-0.41427 -0.990483,-0.79146 -1.485725,-1.18718 -2.186316,-1.62538 -4.62108,-2.86063 -6.992033,-4.18556 0,0 2.50271,2.00804 2.50271,2.00804 v 0 c -0.450644,-0.28781 -1.881825,-0.935 -1.351926,-0.86344 0.335391,0.0453 2.824827,1.77314 3.039055,1.91778 0.487455,0.38371 0.99129,0.74747 1.46236,1.15113 1.507275,1.29156 2.954226,2.833 3.689495,4.71112 0.132501,0.33845 0.202793,0.69807 0.304186,1.0471 0.08533,0.90872 0.167979,1.09549 -0.004,1.99904 -0.195228,1.02552 -0.671791,2.07738 -1.238563,2.94769 -0.213193,0.32737 -0.46415,0.62853 -0.696224,0.9428 -0.750475,0.8064 -0.933688,1.06259 -1.809938,1.75806 -1.369388,1.08688 -2.942093,1.88175 -4.612849,2.38639 -0.404331,0.0919 -0.803352,0.21144 -1.212993,0.2756 -0.756361,0.11848 -1.59698,0.14285 -2.358623,0.045 -0.363746,-0.0468 -1.306668,-0.51201 -1.076676,-0.22635 0.490622,0.60936 1.321575,0.84037 1.948177,1.30878 0.285334,0.21329 -0.614336,-0.36088 -0.921504,-0.54132 -0.767205,-0.68371 -0.976225,-0.7753 -1.537526,-1.67173 -0.70069,-1.11905 -1.114298,-2.4469 -1.270362,-3.75175 -0.05893,-0.4927 -0.05036,-0.99115 -0.07554,-1.48673 0.02996,-0.51507 0.02633,-1.0332 0.08989,-1.54521 0.259244,-2.08786 1.037243,-4.11819 2.217872,-5.85744 0.278016,-0.40956 0.603348,-0.78491 0.905021,-1.17737 0.330086,-0.34152 0.641892,-0.7017 0.990256,-1.02455 1.130646,-1.04784 2.475034,-1.92266 3.955235,-2.37947 0.278455,-0.0859 0.566772,-0.13586 0.850159,-0.20379 0.25419,-0.0277 0.50727,-0.069 0.762569,-0.0832 0.704897,-0.0395 1.427885,0.0577 2.107044,0.24274 z" />
      <path
         style="fill:#ffffff;fill-opacity:1;stroke-width:0.264583"
         id="path6"
         d="m 99.280188,155.11704 c 0.26298,-1.86935 0.383349,-3.75559 0.520544,-5.63738 0.240968,-3.93203 0.558858,-7.85791 0.970368,-11.77567 0.14228,-1.35432 0.32241,-2.7047 0.54621,-4.04797 0.0492,-0.29559 0.19358,-1.13436 0.28613,-1.4759 0.0346,-0.12783 0.0904,-0.24898 0.13556,-0.37347 1.2021,0.14827 2.59165,0.3352 -3.009537,-1.50538 -0.275281,-0.0904 0.39116,0.43012 0.554603,0.66938 0.255837,0.37452 0.480087,0.77014 0.699794,1.16693 0.65134,1.17632 1.19862,2.36118 1.78372,3.57384 1.45325,3.10954 2.76573,6.28363 3.96886,9.49777 0.2825,0.75469 1.23128,3.37414 1.52941,4.19552 0.49201,1.38733 0.97429,2.77814 1.44305,4.17351 0.15648,0.4658 0.33491,0.94063 0.46194,1.41715 1.19813,0.4392 2.33054,1.14129 3.5944,1.3176 0.26966,0.0376 0.003,-0.54466 -0.005,-0.81682 -0.0117,-0.40169 -0.0405,-0.80273 -0.0543,-1.20435 -0.062,-1.80146 -0.0628,-3.60331 -0.0654,-5.40556 -0.008,-4.01836 0.16577,-8.03351 0.4011,-12.04401 0.10804,-1.82535 0.21986,-3.65105 0.36829,-5.47366 0,0 -3.33252,-1.70136 -3.33252,-1.70136 v 0 c 0.11565,1.91229 0.16072,3.8287 0.1744,5.7442 0.0187,4.04407 -0.0755,8.08825 -0.23769,12.12898 -0.0834,1.73401 -0.16536,3.46869 -0.33459,5.19709 -0.0356,0.36318 -0.073,0.72648 -0.12815,1.08721 -0.033,0.21625 -0.30675,0.5053 -0.13599,0.64202 1.01586,0.8134 2.25293,1.30333 3.3794,1.95499 -0.0953,-0.0205 -0.21501,0.005 -0.28589,-0.0615 -0.20801,-0.19641 -0.67982,-1.23934 -0.73897,-1.36567 -0.67466,-1.44106 -1.2845,-2.91128 -1.89656,-4.37959 -1.85345,-4.55508 -3.62043,-9.14486 -5.47711,-13.69875 -0.58603,-1.47172 -0.7944,-2.01054 -1.37104,-3.40612 -0.15127,-0.36611 -0.30398,-0.73164 -0.46049,-1.09554 -0.0972,-0.22607 -0.0962,-0.53741 -0.30074,-0.67428 -3.55331,-2.37785 -2.935016,-3.13111 -3.854697,-1.71955 -0.06422,0.68538 -0.07918,1.37052 -0.110916,2.05814 -0.06498,1.40808 -0.161295,2.81443 -0.225409,4.22256 -0.09439,1.56489 -0.128852,2.2791 -0.261226,3.86525 -0.05786,0.69337 -0.127291,1.38573 -0.19192,2.07849 -0.179462,1.92371 -0.352867,3.84927 -0.635723,5.76134 -0.177699,1.23391 -0.217604,1.6491 -0.457771,2.82767 -0.162171,0.79582 -0.351814,1.60584 -0.69586,2.34569 z" />
      <path
         style="fill:#ffffff;fill-opacity:1;stroke-width:0.264583"
         id="path7"
         d="m 131.53162,126.46942 c 0.26893,0.86458 0.42789,1.75855 0.59815,2.64625 0.28642,1.49325 0.17584,0.8899 0.43839,2.4772 0.51324,3.17303 0.76851,6.37989 0.9384,9.58729 0.0192,0.52218 0.0416,1.04426 0.0575,1.56655 0.0434,1.4178 0.0463,2.83286 0.003,4.25074 -0.0279,0.92262 -0.0609,1.44839 -0.10934,2.35813 -0.10173,1.4912 -0.28097,2.97525 -0.42684,4.46236 -0.0115,0.32379 -0.12424,0.6778 -0.0225,1.00028 0.0772,0.24473 0.23639,0.46143 0.45997,0.59509 1.21247,0.72485 2.45497,1.39823 3.68246,2.09735 1.40842,0.44724 2.88186,0.66826 4.35466,0.75738 0.39026,0.0236 0.78149,0.0269 1.17223,0.0403 2.64979,0.0293 5.29216,-0.20052 7.93697,-0.32647 1.48113,-0.0499 0.76895,-0.0317 2.13647,-0.0571 0,0 -2.84699,-2.0472 -2.84699,-2.0472 v 0 c -1.27258,0.10451 -0.60458,0.052 -2.00409,0.15608 -2.64451,0.18313 -5.29513,0.39363 -7.94786,0.27312 -0.39892,-0.027 -0.79864,-0.0439 -1.19674,-0.081 -1.54129,-0.14357 -3.09574,-0.41768 -4.51847,-1.04663 0.92104,0.54532 1.84453,1.08655 2.76314,1.63596 0.10037,0.06 -0.21024,-0.10381 -0.30822,-0.16768 -0.0723,-0.0472 -0.14826,-0.0952 -0.20055,-0.16396 -0.19635,-0.2581 -0.11535,-0.66036 -0.13807,-0.95052 0.0145,-1.54149 0.0834,-3.08116 0.13426,-4.62172 0.0265,-2.77419 0.0267,-5.54972 -0.17003,-8.31899 -0.19855,-3.18247 -0.41935,-6.36531 -0.7752,-9.53463 -0.17705,-1.62576 -0.39298,-3.25057 -0.48377,-4.88377 z" />
      <path
         style="fill:#ffffff;fill-opacity:1;stroke-width:0.264583"
         id="path8"
         d="m 160.20503,139.93965 c -0.93878,-0.20333 -1.86949,-0.44224 -2.81805,-0.59898 -0.29151,-0.0482 -0.58484,-0.0846 -0.87725,-0.12685 -1.72648,-0.17973 -3.48382,-0.33364 -5.21278,-0.0832 -0.35427,0.0513 -0.70234,0.1388 -1.05352,0.2082 -0.33139,0.11326 -0.67345,0.19915 -0.99419,0.33978 -0.96821,0.42453 -1.76875,1.08476 -2.32242,1.99112 -0.49972,0.81803 -0.52413,1.15584 -0.78057,2.07465 -0.0367,0.38854 -0.10461,0.77538 -0.11021,1.16561 -0.022,1.52967 0.41799,3.06579 1.24998,4.3499 0.19647,0.30325 0.43803,0.57479 0.65704,0.86218 0.25838,0.2478 0.49984,0.51454 0.77514,0.74339 0.27163,0.22579 0.55664,0.43859 0.86146,0.61703 1.71706,1.0052 3.06173,2.0664 4.91296,2.46767 0.88866,0.19262 1.17695,0.14682 2.07817,0.15064 1.42974,-0.13517 2.75148,-0.56786 3.9014,-1.44963 0.73693,-0.56508 0.9495,-0.88686 1.55271,-1.5888 0.68007,-0.93308 1.19988,-1.97254 1.61426,-3.04796 0.38217,-0.99186 0.64125,-2.02577 0.91366,-3.0511 0.18011,-0.68677 0.32695,-1.38193 0.51782,-2.06594 0.0351,-0.12587 0.0616,-0.25523 0.11276,-0.37545 0.0238,-0.056 0.0875,-0.20295 0.10939,-0.14618 0.0372,0.0962 -0.0318,0.20376 -0.0478,0.30564 -1.06468,-0.57483 -2.05442,-1.318 -3.19404,-1.72449 -0.21057,-0.0751 0.12531,0.4295 0.17476,0.64752 0.0753,0.33197 0.14108,0.66618 0.19922,1.00157 0.14796,0.85352 0.28763,1.96276 0.40555,2.80558 0.0797,0.56975 0.16216,1.13911 0.24324,1.70868 0.40818,2.60441 0.8461,5.23836 1.79699,7.71092 0.12223,0.31783 0.27135,0.62465 0.40703,0.93698 0.12147,0.2336 0.24294,0.4672 0.36442,0.7008 0,0 3.26127,1.44672 3.26127,1.44672 v 0 c -0.16127,-0.24116 -0.32254,-0.48232 -0.48381,-0.72348 -0.17478,-0.31923 -0.36693,-0.62953 -0.52433,-0.95767 -1.16139,-2.42124 -1.69875,-5.08601 -2.02899,-7.73267 -0.0521,-0.55315 -0.11207,-1.10561 -0.15629,-1.65944 -0.0961,-1.20333 -0.15418,-2.4145 -0.19306,-3.62116 -0.007,-0.20533 0.14277,-0.48028 -0.0113,-0.61621 -1.02755,-0.90675 -2.24303,-1.57515 -3.36454,-2.36273 -0.0783,0.0772 -0.17767,0.13764 -0.23478,0.23155 -0.0726,0.11943 -0.099,0.60308 -0.10734,0.67912 -0.0794,0.72138 -0.16981,1.44248 -0.31403,2.15427 -0.15391,0.70303 -0.27137,1.29575 -0.47529,1.98978 -0.41923,1.42688 -1.02078,2.80004 -1.91568,3.99559 -0.598,0.66753 -0.79665,0.96238 -1.52442,1.48891 -0.81918,0.59268 -1.78523,0.99424 -2.77981,1.17114 -0.33567,0.0597 -0.67824,0.0703 -1.01737,0.10546 -0.86754,-0.0356 -1.16246,-7.9e-4 -2.00974,-0.22291 -0.33505,-0.0878 -1.24233,-0.56688 -0.98271,-0.33762 0.59078,0.52173 1.33327,0.84129 2.0102,1.245 0.60378,0.36008 -2.41375,-1.47521 -1.68438,-1.26913 -0.2285,-0.27242 -0.47887,-0.52792 -0.6855,-0.81728 -0.86493,-1.21116 -1.3668,-2.67962 -1.36328,-4.172 8e-4,-0.3684 0.0649,-0.73395 0.0973,-1.10092 0.24839,-0.86254 0.27049,-1.17695 0.75406,-1.93763 0.53055,-0.8346 1.30087,-1.44116 2.20759,-1.82204 0.30854,-0.12962 0.63654,-0.20695 0.95481,-0.31042 0.34153,-0.062 0.68034,-0.14144 1.02459,-0.1859 1.74262,-0.22507 3.50849,-0.0325 5.2373,0.20773 1.34051,0.24031 2.68687,0.51936 3.95674,1.02347 z" />
      <path
         style="fill:#ffffff;fill-opacity:1;stroke-width:0.264583"
         id="path9"
         d="m 171.9535,128.48922 c 0.0238,0.89354 0.0369,1.78753 0.018,2.6812 -0.0595,1.54668 -0.0832,3.09415 -0.10195,4.64176 7.9e-4,0.29939 0.003,0.59878 0.002,0.89816 -7.9e-4,0.5976 -0.0122,1.19519 -0.009,1.79278 0.004,0.85114 0.0374,1.70201 0.061,2.55273 0.0423,1.49015 0.0937,2.98013 0.15221,4.46974 0.069,1.46826 0.16686,2.93505 0.2487,4.40268 0.0513,1.06856 0.0745,2.13857 0.0799,3.20831 0.0453,0.92548 0.11798,1.84913 0.14366,2.77548 0.021,0.73383 0.0154,1.46797 0.0157,2.20198 0.0281,0.63089 -0.0488,1.25568 -0.11279,1.88161 -0.0495,0.517 -0.0767,1.03495 -0.13055,1.55158 -0.0494,0.14304 -0.012,0.61728 -0.0956,0.72422 1.17874,0.58848 2.33919,1.21512 3.53623,1.76543 0.0461,0.0212 -0.0175,-0.10009 -0.0235,-0.15052 -0.0248,-0.21015 -0.0355,-0.40724 -0.0484,-0.61996 -0.0328,-0.54117 -0.028,-0.49076 -0.0539,-1.0754 -0.0727,-1.73739 -0.0783,-3.47593 -0.0701,-5.21443 0.0572,-2.31456 0.12671,-4.62896 0.20311,-6.94299 0.10176,-1.94252 0.178,-3.90201 0.54934,-5.81695 0.0569,-0.29346 0.13327,-0.58282 0.19991,-0.87423 0.21278,-0.71539 0.57695,-1.9259 1.30559,-2.31224 0.0918,-0.0487 0.19905,-0.06 0.29858,-0.0899 0.11443,0.0184 0.23234,0.0217 0.3433,0.0553 0.14574,0.044 0.28105,0.11715 0.42157,0.17573 -0.87692,-0.49207 -1.73374,-1.02181 -2.63077,-1.47621 -0.25786,-0.13062 0.48113,0.32172 0.70721,0.50183 0.67794,0.54005 1.04121,0.93983 1.66515,1.56161 1.39828,1.46297 2.65035,3.0668 3.76427,4.75587 0.71032,1.07708 0.93929,1.51828 1.57651,2.63285 0.81571,1.5015 1.48157,3.08012 1.9926,4.71017 0.24559,0.78335 0.30197,1.04451 0.49922,1.81689 0.23616,0.99528 0.38035,2.01096 0.45398,3.03064 0.0225,0.52354 0.0478,1.04695 0.067,1.57063 0.0237,0.77912 0.009,1.55823 -0.0128,2.33716 0,0 3.4096,1.73803 3.4096,1.73803 v 0 c -0.0184,-0.78129 -0.0299,-1.56277 -7.9e-4,-2.34401 0.0222,-0.53163 0.0696,-1.06824 -0.0191,-1.59659 -0.16857,-1.08706 -0.43958,-2.15614 -0.71202,-3.22082 -0.30522,-1.00224 -0.61299,-2.00435 -0.99573,-2.9806 -0.50493,-1.28793 -1.10091,-2.54019 -1.75679,-3.75757 -0.25443,-0.44547 -0.50045,-0.89587 -0.7633,-1.33643 -1.27793,-2.14196 -2.74616,-4.17411 -4.3823,-6.05634 -0.54313,-0.59254 -0.8921,-1 -1.47182,-1.53762 -0.19305,-0.17903 -0.37612,-0.37574 -0.60127,-0.51223 -1.22805,-0.74443 -2.4757,-1.45844 -3.74807,-2.12429 -0.16082,-0.0842 -0.35089,-0.10557 -0.53212,-0.11561 -0.15203,-0.008 -0.3018,0.0407 -0.4527,0.061 -0.11504,0.0665 -0.24041,0.11763 -0.3451,0.19942 -0.7549,0.58979 -0.99021,1.78295 -1.1875,2.65306 -0.0511,0.30653 -0.10915,0.61198 -0.15336,0.91959 -0.28088,1.95432 -0.33767,3.93249 -0.46606,5.90007 -0.10225,2.29671 -0.20758,4.59324 -0.32541,6.88922 -0.0447,1.7071 -0.0612,3.41494 -0.12391,5.12151 -0.0212,0.45246 -0.0401,0.90564 -0.0775,1.35718 -0.007,0.0791 -0.0146,0.15813 -0.0243,0.23692 -0.006,0.0461 -0.0621,0.11462 -0.0218,0.13771 1.15883,0.66356 2.35963,1.25101 3.53944,1.87651 -0.0204,-0.26088 -0.009,-0.5215 0.006,-0.78263 0.0339,-0.5219 0.0717,-1.04315 0.0961,-1.56563 0.0541,-0.64057 0.14449,-1.2797 0.11051,-1.92418 -0.004,-0.74524 -0.0178,-1.49052 -0.0499,-2.23512 -0.0482,-0.92706 -0.10933,-1.85282 -0.17234,-2.77891 -0.0242,-1.09213 -0.0631,-2.18352 -0.1624,-3.27196 -0.11437,-1.46721 -0.24199,-2.93506 -0.27934,-4.40667 -0.0573,-1.49749 -0.11421,-2.99461 -0.19569,-4.49106 -0.0812,-1.74273 -0.14174,-3.4863 -0.0702,-5.23088 0.0285,-1.52706 0.0772,-3.05426 0.20371,-4.57682 0.0613,-0.84763 0.058,-1.70433 0.20407,-2.54316 z" />
      <path
         style="fill:#ffffff;fill-opacity:1;stroke-width:0.264583"
         id="path10"
         d="m 207.41233,133.40226 c 0.11243,0.89831 0.12702,1.15876 0.13689,2.06258 -0.003,0.85305 -0.0973,1.7061 -0.10035,2.55917 0.005,0.82371 -0.14052,1.6474 -0.14452,2.47109 -0.009,0.65061 0.24356,1.30125 0.24006,1.9519 -0.002,0.67209 0.17061,1.34407 0.17411,2.01613 0.005,0.83765 -1.44442,1.67528 -1.44552,2.51295 -0.004,0.78017 -0.0179,1.56062 0.002,2.34064 0.0529,0.78259 0.0857,1.56624 0.10529,2.35031 0.0108,0.6797 0.005,1.35948 0.006,2.03922 -0.0141,0.71309 5.3e-4,1.42272 0.079,2.13169 0.11647,0.87204 0.14591,1.75117 0.19496,2.62845 0.0625,0.85289 0.10256,1.70711 0.11874,2.56209 0.0187,0.80217 0.0125,1.60433 0.007,2.40656 -0.009,0.60628 -0.007,1.21263 -0.0184,1.81886 -2.7e-4,0.5085 -0.0123,1.01636 0.0266,1.52373 0.0354,0.40278 0.0678,0.80567 0.0812,1.20983 0.009,0.36263 0.0123,0.72532 0.01,1.08805 0.0139,0.0717 -0.0151,0.1409 -0.0153,0.21162 -2e-5,0.005 0.006,-0.007 0.008,-0.0112 0.0496,-0.0907 0.0545,-0.31881 0.14721,-0.27306 2.97233,1.4665 4.15103,3.06056 3.31696,1.94396 -0.073,-0.30297 -0.0749,-0.61872 -0.081,-0.92885 -0.004,-0.36597 -0.006,-0.73192 -0.003,-1.0979 -0.003,-0.36698 0.002,-0.73397 -1.1e-4,-1.10094 2.4e-4,-0.36471 -5.3e-4,-0.72941 7.9e-4,-1.09411 -0.002,-0.36767 0.001,-0.73533 -0.001,-1.10301 0.003,-0.36643 -5.3e-4,-0.73285 5.3e-4,-1.09927 0.003,-0.38228 -7.9e-4,-0.76455 -0.005,-1.14681 -0.005,-0.53145 -0.0627,-1.06049 -0.10149,-1.59013 -0.0282,-0.5173 -0.0309,-1.03528 -0.0325,-1.55316 0.006,-0.3991 0.005,-0.79822 0.007,-1.19733 -10e-4,-0.37387 0.0132,-0.74839 -0.0138,-1.12147 -0.0836,-0.359 -0.16174,-0.71681 -0.20801,-1.08274 -0.0299,-0.41068 -0.0489,-0.82085 -0.0943,-1.23033 -0.0192,-0.40059 -0.071,-0.78991 -0.16871,-1.17841 -0.0948,-0.40351 -0.17991,-0.80916 -0.24804,-1.21804 -0.11995,-0.62035 -0.27486,-1.23301 -0.39981,-1.85263 -0.13827,-0.60837 -0.33365,-1.20166 -0.45595,-1.81368 -0.0631,-0.46881 -0.21462,-0.91224 -0.36875,-1.35664 -0.13272,-0.41904 -0.20949,-0.8478 -0.37079,-1.25785 -0.14031,-0.40464 -0.32482,-0.7878 -0.54544,-1.15429 -0.25359,-0.35678 -0.49306,-0.72359 -0.79877,-1.03822 -1.18152,-0.94445 -2.37626,-1.44585 -3.84602,-2.28947 -0.17476,-0.10032 -0.36846,-0.14326 -0.56167,-0.19136 -0.0619,-0.0116 -0.12539,-0.0163 -0.18557,-0.0347 -0.74015,-0.22651 0.40976,0.077 -0.34981,-0.14115 -0.21331,-0.0613 -0.43837,-0.0856 -0.65812,-0.10764 -0.55045,-0.10086 -1.10865,-0.13744 -1.66706,-0.15565 -0.37866,0.002 -0.77247,-0.008 -1.14826,0.053 -0.001,2.1e-4 -0.52112,0.12967 -0.53111,0.13215 -0.4399,0.12405 -0.8384,0.34605 -1.21935,0.5945 -0.34119,0.30245 -0.60003,0.68858 -0.8375,1.07469 -0.34022,0.49518 -0.60619,1.03056 -0.87359,1.56644 -0.27841,0.48426 -0.41993,1.02278 -0.59937,1.54611 -0.19203,0.49177 -0.35243,0.99008 -0.45534,1.5081 -0.0292,0.51994 -0.13803,1.02751 -0.22226,1.54014 -0.079,0.54168 -0.0947,1.0887 -0.11052,1.63491 -0.006,0.50649 -0.009,1.013 -0.007,1.51954 -0.0386,0.49398 0.0543,0.97377 0.14371,1.45602 0.0802,0.48923 0.12867,0.98359 0.21664,1.4714 0.0952,0.37487 0.19347,0.75182 0.33705,1.11149 0.14896,0.32915 0.31143,0.66319 0.51687,0.96148 0.18459,0.25406 0.34496,0.52607 0.52977,0.77904 0.1766,0.25767 0.38429,0.48441 0.62035,0.68917 0.24079,0.27623 0.50106,0.53253 0.73493,0.81504 0.19463,0.24458 0.38343,0.47409 0.6392,0.65781 0.24494,0.15227 0.45841,0.35664 0.70728,0.49989 1.11685,0.99324 2.61715,1.57402 3.86439,2.28992 0.37937,0.21775 -0.10006,-0.0322 0.30729,0.17459 0.36038,0.15446 0.72185,0.25761 1.11244,0.29656 0.44197,0.0462 0.88131,0.10453 1.32613,0.12958 0.41734,0.009 0.83875,0.057 1.25359,-0.001 0.38806,-0.0463 0.7745,-0.0767 1.13645,-0.2311 0.37691,-0.13263 0.69858,-0.38674 0.99334,-0.65194 0.30204,-0.19154 0.47952,-0.51254 0.6688,-0.80596 0.13725,-0.2584 0.34069,-0.47064 0.4745,-0.73138 0.16488,-0.2844 0.31818,-0.57899 0.4318,-0.88788 0.1271,-0.36855 0.26362,-0.73323 0.40904,-1.0949 0.18199,-0.57628 0.33865,-1.16016 0.45727,-1.75273 0.0936,-0.63204 0.14385,-1.26889 0.23162,-1.9019 0.0538,-0.41046 0.0814,-0.82376 0.0907,-1.23746 0.0114,-0.45596 -0.005,-0.91201 -0.0131,-1.36789 -0.0205,-0.80759 -0.0229,-1.61551 -0.0242,-2.42333 0.002,-0.7548 0.01,-1.5096 0.0176,-2.26438 -7.9e-4,-0.68533 2.7e-4,-1.37064 -0.006,-2.05596 -0.002,-0.75082 0.004,-1.50074 -0.0282,-2.25097 -0.0502,-0.68819 -0.0753,-1.37735 -0.0896,-2.06707 -0.0159,-0.63312 -0.009,-1.26642 0.006,-1.89948 0.004,-0.40547 0.0118,-0.81095 0.0111,-1.21645 0.001,-0.36296 2.6e-4,-0.72592 0.001,-1.08889 -0.002,-0.36696 0.001,-0.7339 -0.002,-1.10087 0.003,-0.42654 -0.008,-0.85287 -0.009,-1.27943 0.004,-0.48699 -0.003,-0.97402 -0.001,-1.46101 0.0106,-0.51844 -0.0609,-1.034 -0.095,-1.55063 -0.0449,-0.68415 -0.0481,-1.37037 -0.0548,-2.05575 -0.0146,-0.81149 0.0117,-1.62325 -0.0332,-2.43381 -0.10254,-0.89728 -0.1719,-1.79701 -0.21367,-2.69902 -0.0166,-0.97292 -0.0458,-1.94491 -0.0911,-2.91693 -0.0373,-0.82955 -0.0524,-1.65988 -0.0438,-2.49019 0.003,-0.46774 0.0159,-0.93532 0.0165,-1.40309 l -3.4985,-1.78281 v 0 c 1.4e-4,0.4768 0.0129,0.95334 0.0257,1.42994 0.0278,0.8426 0.0465,1.68555 0.0882,2.52765 0.0449,0.97063 0.0851,1.94038 0.0894,2.91226 0.026,0.90302 0.0834,1.80368 0.18648,2.70145 0.0767,0.79767 0.0176,1.60138 0.0308,2.40196 -10e-4,0.68656 8e-4,1.37293 0.0167,2.05935 0.0241,0.5093 0.0767,1.01641 0.0943,1.52552 0.002,0.48659 -0.005,0.97321 -0.001,1.45981 -0.002,0.4235 -0.0122,0.84677 -0.009,1.27026 -0.003,0.36646 8e-4,0.73291 -0.002,1.09936 0.001,0.36329 1.6e-4,0.72657 0.001,1.08986 -0.001,0.40914 0.006,0.81827 0.01,1.22738 0.0145,0.64073 0.023,1.28153 0.0244,1.92242 0.0104,0.69434 0.026,1.3892 0.0803,2.08172 0.0607,0.74327 0.0552,1.48758 0.0461,2.23298 -0.007,0.68318 -0.006,1.36635 -0.006,2.04954 0.008,0.76083 0.0157,1.52167 0.0178,2.28253 -0.001,0.79998 -0.003,1.60006 -0.0224,2.39984 -0.008,0.44755 -0.0201,0.89506 -0.0192,1.34272 -0.006,0.40565 -0.0113,0.81167 -0.052,1.21575 -0.0567,0.63027 -0.10191,1.26212 -0.18868,1.88887 -0.11062,0.5694 -0.27467,1.12226 -0.46439,1.66984 -0.13964,0.3677 -0.30297,0.72505 -0.43302,1.09597 -0.0998,0.2954 -0.2439,0.57689 -0.4115,0.83933 -0.12713,0.24912 -0.33358,0.44873 -0.4517,0.7033 -0.1668,0.26989 -0.33502,0.53333 -0.60523,0.71201 -0.26918,0.22831 -0.55469,0.43237 -0.9005,0.52529 -0.35696,0.0799 -0.72015,0.1226 -1.08477,0.15063 -0.40208,0.003 -0.80442,-0.008 -1.2055,-0.0371 -0.44102,-0.0402 -0.87964,-0.10159 -1.31744,-0.16734 -0.3618,-0.0855 -0.71023,-0.21959 -1.03539,-0.40082 -1.18526,-0.67449 -2.62348,-1.51064 2.91993,1.6986 0.0436,0.0253 -0.0875,-0.0504 -0.13324,-0.0715 -0.0427,-0.0197 -0.091,-0.0269 -0.13152,-0.0508 -0.0394,-0.0233 -0.07,-0.0591 -0.10497,-0.0886 -0.2072,-0.25664 0.0261,-0.003 -0.21513,-0.17212 -0.0384,-0.0269 -0.063,-0.0701 -0.0998,-0.0991 -0.12076,-0.0955 -0.25409,-0.18308 -0.38673,-0.26119 -0.24644,-0.18714 -0.53148,-0.29598 -0.67165,-0.59049 -0.26236,-0.25453 -0.46502,-0.56059 -0.73915,-0.8028 -0.0992,-0.14958 -0.1974,-0.237 -0.33711,-0.34764 -0.0364,-0.0288 -0.08,-0.0498 -0.11012,-0.085 -0.0335,-0.0393 -0.0448,-0.094 -0.077,-0.13432 -0.0287,-0.036 -0.0688,-0.0611 -0.1032,-0.0917 -0.06,-0.0809 -0.14053,-0.14612 -0.19545,-0.2306 -0.031,-0.0476 -0.0395,-0.10705 -0.0676,-0.15644 -0.0761,-0.13393 -0.18918,-0.25376 -0.28424,-0.37372 -0.0313,-0.0514 -0.0625,-0.10276 -0.0938,-0.15414 -0.0372,-0.04 -0.0817,-0.0744 -0.11173,-0.12008 -0.12632,-0.19255 -0.1824,-0.43632 -0.34306,-0.61018 -0.0196,-0.0543 -0.0392,-0.10859 -0.0588,-0.16289 -0.025,-0.0488 -0.0547,-0.0955 -0.0751,-0.14644 -0.0993,-0.24795 -0.15134,-0.51476 -0.24312,-0.76544 -0.14385,-0.46476 -0.16109,-0.96932 -0.23622,-1.44838 -0.0326,-0.23612 -0.0764,-0.46781 -0.12609,-0.70097 -0.0147,-0.0692 -0.04,-0.13658 -0.047,-0.20699 -0.0161,-0.16376 0.0202,-0.32988 -5.3e-4,-0.49366 0.001,-0.50479 -0.005,-1.00948 5.3e-4,-1.51426 0.003,-0.52981 0.0165,-1.06117 0.0855,-1.58712 0.0766,-0.51061 0.20505,-1.01229 0.22956,-1.52956 0.0735,-0.50512 0.22301,-0.98534 0.40626,-1.46127 0.18013,-0.50563 0.31937,-1.02706 0.57548,-1.50323 0.26061,-0.52304 0.50427,-1.05337 0.85431,-1.52625 0.22585,-0.32718 0.46414,-0.66767 0.77722,-0.91622 0.35089,-0.21877 0.71825,-0.40299 1.1238,-0.49749 0.52757,-0.11201 1.06777,-0.14041 1.60609,-0.10508 0.55729,0.037 1.11193,0.0966 1.66076,0.20317 0.3983,0.0871 0.77783,0.22897 1.16938,0.34055 0.20177,0.0805 0.15063,0.0544 0.3471,0.15647 0.0568,0.0295 0.2242,0.12317 0.16903,0.0908 -5.68345,-3.3312 -5.04975,-1.96343 -3.98663,-1.16325 0.40672,0.22774 0.67821,0.213 1.92368,0.72818 0.24295,0.32921 0.50987,0.41991 0.62883,0.81301 0.0832,0.18652 0.18837,0.37145 0.23991,0.5703 0.0567,0.21858 0.0634,0.45109 0.15017,0.66274 0.13848,0.44172 0.33549,0.86077 0.40724,1.32072 0.11887,0.61817 0.30041,1.21891 0.47482,1.82337 0.11806,0.61219 0.26089,1.21991 0.37329,1.83204 0.0788,0.41101 0.11395,0.82876 0.21832,1.2352 0.04,0.15527 0.12693,0.38647 0.15295,0.53354 0.0344,0.19467 0.004,0.40299 0.0469,0.59752 0.0417,0.40759 0.0915,0.81183 0.0862,1.22255 0.0268,0.37527 0.083,0.74856 0.19305,1.1092 0.10957,0.33811 0.017,0.71026 0.0477,1.0612 0.002,0.40279 -5.2e-4,0.8056 0.009,1.20833 0.005,0.52617 0.0131,1.05254 0.039,1.57815 0.0202,0.52053 0.0912,1.03806 0.0878,1.55874 -0.004,0.38062 -0.008,0.76127 -0.005,1.14191 0.001,0.36659 -0.003,0.73317 5.3e-4,1.09976 -0.003,0.36722 7.9e-4,0.73443 -0.001,1.10165 0.001,0.36486 5.2e-4,0.72972 5.2e-4,1.09459 -0.002,0.36664 0.002,0.7333 -0.001,1.09995 0.002,0.368 -0.002,0.73598 0.002,1.10396 0.003,0.3271 0.002,0.65433 0.0198,0.98107 -0.0665,1.45322 -0.0595,0.46018 3.40036,2.23552 0.0388,0.0199 0.21478,-0.26732 0.23056,-0.3646 0.0122,-0.0751 -0.0462,-0.15258 -0.0149,-0.22792 -0.003,-0.36725 0.002,-0.73461 -0.009,-1.10175 -0.0133,-0.41382 -0.0329,-0.82739 -0.0887,-1.23812 -0.0505,-0.49772 -0.057,-0.99458 -0.0472,-1.49507 -0.0109,-0.61231 -0.008,-1.22472 -0.0165,-1.83707 -0.006,-0.80766 -0.0121,-1.61536 -0.0212,-2.42299 -0.021,-0.86089 -0.047,-1.72182 -0.1193,-2.58033 -0.0626,-0.87868 -0.068,-1.76153 -0.17561,-2.63705 -0.002,-0.0202 -0.0739,-0.71884 -0.0756,-0.76034 -0.0184,-0.43911 0.0286,-0.88128 0.007,-1.32071 -6e-5,-0.68626 -0.009,-1.37255 -0.0253,-2.05861 -0.0165,-0.7852 -0.0502,-1.56949 -0.0953,-2.35356 -0.0465,-0.77772 -0.01,-1.5578 -0.0295,-2.33652 -0.001,-0.8346 0.004,-1.66915 0.009,-2.50373 0.004,-0.66781 0.015,-1.33553 0.0125,-2.00337 -0.004,-0.65529 -0.005,-1.31058 -0.0137,-1.96584 -0.004,-0.82518 -0.0106,-1.65037 -0.003,-2.47556 -2.2e-4,-0.85719 0.002,-1.71434 -0.009,-2.57149 -0.004,-0.91284 -0.0116,-1.82684 -0.0798,-2.73755 -0.0467,-0.38836 -0.0905,-0.77786 -0.16717,-1.16181 -0.021,-0.10526 -0.0482,-0.20919 -0.0723,-0.31378 -0.0227,-0.0829 -0.0512,-0.16437 -0.0682,-0.24859 -0.0134,-0.0664 -0.0153,-0.13471 -0.023,-0.20207 z"
         sodipodi:nodetypes="ccccccccccccccccccsccccccccccccccccccccccccsccsccsccccccccccccccccccscccccccccccccccccccccccccccccccccscccccccccccccccccccccccccccccccssccsccccscscsccccccsccscccccccccccccsccccscccccsccccccccccccccsscccccccccccccscccccscscc" />
      <path
         style="fill:#ffffff;fill-opacity:1;stroke-width:0.264583"
         id="path11"
         d="m 211.97984,153.19409 c 0.22169,0.485 0.45096,0.95524 0.77657,1.37953 1.26001,1.34592 2.92768,2.5385 4.77644,2.78719 0.86649,0.12594 1.66006,-0.1111 2.48034,-0.35696 1.08057,-0.36991 2.01594,-0.98545 2.8669,-1.73515 0.50201,-0.49975 0.97486,-1.03438 1.36077,-1.63042 0.21546,-0.33279 0.32556,-0.56201 0.50958,-0.91258 0.29708,-0.66939 0.52376,-1.37154 0.64744,-2.09433 0.07,-0.40874 0.0936,-0.74253 0.13255,-1.15505 0.11245,-1.2235 0.0521,-2.44079 -0.14685,-3.65043 -0.10109,-0.73586 -0.30723,-1.4365 -0.72751,-2.05171 -1.06929,-1.20516 -0.24679,-0.31818 -3.71726,-2.2628 -0.0764,-0.0428 -0.44019,-0.0793 -0.51621,-0.0851 -0.17434,-0.0134 -0.47358,-0.0179 -0.64433,-0.0219 -0.5567,-0.005 -1.1141,-0.0151 -1.6631,0.0917 -0.31582,0.0614 -0.44907,0.1107 -0.75318,0.20378 -0.81628,0.35 -1.22035,1.01981 -1.59362,1.78543 -0.51397,1.13554 -0.81232,2.34553 -1.01968,3.56958 -0.18701,1.46343 -0.1874,2.94136 -0.19668,4.41405 0.0249,1.34611 -0.0511,2.69857 0.086,4.04096 0.0268,0.26267 0.0713,0.52324 0.10702,0.78486 0.20318,1.54137 0.74163,2.99243 1.37459,4.4016 0.48433,1.03908 1.18213,1.95312 2.05838,2.69286 0.18556,0.15665 0.38398,0.29739 0.57597,0.44609 1.69641,1.07474 3.3949,2.22442 5.30962,2.85943 0.76266,0.25294 1.55183,0.39508 2.33856,0.54744 1.42704,0.23449 2.8756,0.29899 4.31968,0.29333 0.79168,-0.0155 0.40932,-0.007 1.14707,-0.0241 0,0 -3.08934,-2.22711 -3.08934,-2.22711 v 0 c -0.70261,0.0367 -0.33663,0.0214 -1.09801,0.0439 -1.42021,0.004 -2.84436,-0.0749 -4.24386,-0.32938 -0.77682,-0.15635 -1.54069,-0.31836 -2.28696,-0.59218 -0.25063,-0.092 -0.961,-0.4551 -0.74106,-0.30378 0.55045,0.3787 3.85002,2.29704 1.81599,1.11162 -0.19144,-0.13669 -0.38894,-0.26527 -0.57432,-0.41008 -0.88376,-0.69036 -1.62742,-1.54883 -2.12601,-2.55588 -0.66412,-1.37444 -1.25124,-2.79016 -1.44902,-4.31711 -0.0401,-0.25423 -0.0893,-0.50718 -0.12018,-0.76268 -0.16102,-1.33102 -0.093,-2.67422 -0.0958,-4.01076 0.014,-1.44874 0.0228,-2.90318 0.20994,-4.34216 0.18709,-1.18498 0.47613,-2.36014 1.02812,-3.43362 0.3352,-0.64651 0.72698,-1.25798 1.45216,-1.50004 0.25972,-0.0705 0.43625,-0.12646 0.70389,-0.16604 0.54553,-0.0807 1.0983,-0.0428 1.64613,-0.0154 0.29696,0.0276 0.59556,0.0479 0.87614,0.15953 0.0723,0.0288 0.27584,0.14419 0.20897,0.10432 -2.17223,-1.2952 -4.24139,-2.48604 -2.92094,-1.7255 0.13414,0.14453 0.23695,0.24457 0.34817,0.4115 0.30149,0.45254 0.44988,0.98722 0.55598,1.51394 0.0907,0.43549 0.14811,0.66539 0.20134,1.11253 0.0969,0.81411 0.0597,1.63352 0.001,2.44888 -0.0949,1.0681 -0.25897,2.13 -0.72788,3.1073 -0.16503,0.3112 -0.29612,0.57422 -0.4863,0.87078 -0.3665,0.57155 -0.82364,1.07762 -1.30362,1.55506 -0.82528,0.69881 -1.7254,1.29852 -2.7798,1.59207 -0.80426,0.20835 -1.61818,0.35774 -2.44193,0.1553 -1.26806,-0.38028 -3.1063,-1.71059 2.59463,1.62317 0.0793,0.0463 -0.16202,-0.0873 -0.23722,-0.13995 -0.17531,-0.12279 -0.29862,-0.25369 -0.4522,-0.4018 -0.17522,-0.17985 -0.24026,-0.23126 -0.3827,-0.43749 -0.17176,-0.24867 -0.24221,-0.53818 -0.37976,-0.80437 z" />
      <path
         style="fill:#ffffff;fill-opacity:1;stroke-width:0.264583"
         id="path12"
         d="m 232.07926,146.72162 c 0.086,1.06144 -0.007,2.12875 -0.0412,3.19117 -0.0995,1.81787 -5.3e-4,3.63465 0.10761,5.44919 0.15247,1.70944 0.33807,3.41693 0.54908,5.12025 0.15628,1.35995 0.40787,2.7056 0.61062,4.05889 0.17225,1.13153 0.23157,2.27503 0.26456,3.41772 0.0325,0.86738 0.0804,1.73416 0.0919,2.60218 2.4e-4,0.0962 2.7e-4,0.19239 8e-4,0.28858 2.6e-4,0.0872 0.003,0.17441 0.002,0.26159 -10e-4,0.0605 -0.003,0.121 -0.009,0.18119 -0.002,0.0205 -0.0325,0.051 -0.014,0.06 3.65749,1.794 4.27598,2.73591 3.44437,1.53387 -0.0251,-0.11123 -0.0563,-0.22125 -0.0752,-0.33368 -0.10601,-0.62867 -0.13264,-1.27498 -0.16325,-1.91029 -0.038,-0.78869 -0.0433,-1.10972 -0.0669,-1.91757 -0.0484,-2.2555 -0.0381,-4.51173 -0.0363,-6.7676 -0.0214,-2.20528 -0.0102,-4.4087 0.11581,-6.61074 0.10447,-1.23918 0.28281,-2.47748 0.61652,-3.67689 0.10979,-0.29502 0.14156,-0.65561 0.32248,-0.92354 0.0496,-0.0735 0.0868,-0.0773 0.16216,-0.1098 0.23999,-0.0562 0.36915,0.13692 0.56059,0.24508 0.0882,0.0498 0.36011,0.1858 0.27238,0.13506 -0.9938,-0.57482 -1.99407,-1.13838 -2.9911,-1.70756 0.97345,0.64146 1.79289,1.47773 2.59668,2.31382 0.91524,0.95472 1.80541,1.93231 2.67982,2.92438 0.55947,0.63167 1.16557,1.21808 1.75432,1.82155 0,0 3.60009,1.48027 3.60009,1.48027 v 0 c -0.5792,-0.51052 0.16398,0.15683 -0.46381,-0.45254 -0.58937,-0.57207 -0.005,0.0495 -0.643,-0.59153 -0.12509,-0.12576 -0.24266,-0.25878 -0.36399,-0.38818 -0.135,-0.13473 -0.27001,-0.26946 -0.40501,-0.40419 -0.88704,-0.99436 -1.78024,-1.98305 -2.70069,-2.94678 -0.7768,-0.83037 -1.55651,-1.66115 -2.45633,-2.36204 -1.21353,-0.70385 -2.42363,-1.41365 -3.64058,-2.11155 -0.24047,-0.1379 -0.50325,-0.27031 -0.78815,-0.22509 -0.14097,0.0224 -0.22597,0.0862 -0.34631,0.15534 -0.12095,0.11245 -0.17226,0.14291 -0.25474,0.29337 -0.16949,0.30918 -0.18869,0.69137 -0.28542,1.02303 -0.0496,0.23489 -0.14153,0.65615 -0.17477,0.88174 -0.1445,0.98085 -0.20723,1.97573 -0.27936,2.96339 -0.0674,2.2154 -0.0985,4.4303 -0.0797,6.64691 0.002,2.25002 0.009,4.50007 -0.007,6.75006 -0.0118,1.36698 -0.0317,2.73447 5e-5,4.10131 -0.0448,1.57274 -0.0826,0.3429 3.60254,2.01963 0.0401,0.0182 0.0134,-0.0873 0.013,-0.13133 -0.002,-0.25351 -0.0423,-0.50865 -0.0415,-0.76262 -0.0481,-0.87795 -0.10162,-1.75545 -0.15737,-2.63295 -0.0336,-1.16255 -0.10172,-2.32453 -0.27816,-3.47548 -0.20618,-1.36167 -0.47678,-2.71159 -0.65934,-4.07688 -0.25185,-1.69956 -0.43129,-3.4108 -0.60973,-5.11937 -0.10773,-1.79468 -0.22405,-3.59357 -0.0807,-5.39037 0.0696,-1.03376 0.17818,-2.0623 0.2735,-3.09334 z" />
    </g>
    <text
       xml:space="preserve"
       style="font-style:normal;font-variant:normal;font-weight:normal;font-stretch:normal;font-size:37.1736px;font-family:moo;-inkscape-font-specification:moo;fill:#ffffff;stroke-width:0.146353"
       x="3.5862637"
       y="153.02492"
       id="text2"><tspan
         sodipodi:role="line"
         id="tspan1"
         style="font-style:normal;font-variant:normal;font-weight:normal;font-stretch:normal;font-family:Moonlander;-inkscape-font-specification:Moonlander;stroke-width:0.146353"
         x="3.5862637"
         y="153.02492">MOON LANDER</tspan></text>
  </g>
</svg>
